<?xml version="1.0" standalone="no"?><!DOCTYPE svg PUBLIC "-//W3C//DTD SVG 1.1//EN" "http://www.w3.org/Graphics/SVG/1.1/DTD/svg11.dtd"><svg t="1614238789294" class="icon" viewBox="0 0 1024 1024" version="1.1" xmlns="http://www.w3.org/2000/svg" p-id="2422" xmlns:xlink="http://www.w3.org/1999/xlink" width="200" height="200"><defs><style type="text/css">
</style></defs><path d="M182.6 899.3c3.4-11.9 8-23.6 12.8-35l-3 7.2c8.1-19.2 17.6-37.8 28.4-55.7 6.5-10.7 13.5-21.2 21.1-31.2 0.8-1.1 4.3-5.7 0.9-1.3s0.2-0.2 1-1.3c2.2-2.7 4.4-5.4 6.6-8 4.4-5.2 9-10.2 13.8-15.1 5.4-5.5 10.9-10.8 16.7-15.8 3.1-2.7 6.3-5.4 9.6-7.9 5-4-5.5 4.1-0.2 0.2l5.4-3.9c7.9-5.6 13-12.1 14.3-21.9 1.2-9.2-1.4-18.6-8.3-25.2-11.4-10.8-22.3-22.1-32.7-33.9-5.1-5.8-10.2-11.8-15.1-17.9-1.1-1.3-2.1-2.6-3.2-4-0.6-0.8-1.2-1.5-1.8-2.3-2.9-3.6 2 2.6 2 2.7-2.4-2.9-4.6-6.1-6.9-9.2-17.3-23.5-32.7-48.5-46.2-74.4-7.4-14.3-14.2-28.8-20.5-43.6l3 7.2c-19.7-46.7-33.8-95.7-43-145.5-2.4-13-4.5-26-6.2-39.1 0.4 2.7 0.7 5.3 1.1 8-4.8-36.3-7.3-72.9-7.4-109.6-0.1-23.8 0.8-47.7 2.9-71.5 0.5-5.8 1.1-11.6 1.9-17.3-0.4 2.7-0.7 5.3-1.1 8 0.1-0.5 0.1-0.9 0.2-1.4l-36.9 21c11.3 1.8 22.5 5.4 33.2 9.1 6.4 2.2 12.8 4.7 19.1 7.4l-7.2-3c13 5.5 25.7 11.8 37.9 18.8 7.2 4.1 14.2 8.4 21 13 3.6 2.4 7.1 4.8 10.6 7.3 1.7 1.2 3.4 2.5 5.1 3.7 3.1 2.3 9.5 7.4 0.4 0.3 15.8 12.4 30.6 25.8 44.4 40.5 7.7 8.2 15 16.7 22 25.4 0.8 1.1 1.7 2.1 2.5 3.2 3.3 4.2-5.3-6.9-1.7-2.1 1.8 2.4 3.7 4.9 5.5 7.4 3.6 5 7.1 10 10.5 15.1C312 333 326.1 360 338 388l-3-7.2c17 40.4 29.1 82.8 37.2 125.9 2.7 14 4.9 28 6.8 42.1-0.4-2.7-0.7-5.3-1.1-8 3.5 26.6 5.8 53.2 7 80 0.4 9.7 4.2 17.6 11.8 23.6 7 5.4 17.4 8.7 26.2 5.4 5.8-2.2 11.7-3.7 17.9-4.6-2.7 0.4-5.3 0.7-8 1.1 7.2-0.9 14.3-0.8 21.5 0.1-2.7-0.4-5.3-0.7-8-1.1 6.1 0.8 12.4 2.1 18.1 4.5l-7.2-3c4.7 2.7 9.7 4.1 15.1 4.1s10.5-1.4 15.1-4.1c8.9-5.2 15.2-15.5 14.9-25.9-1-26 0.4-52.3 2.5-78.2 1.1-13.9 2.6-27.8 4.5-41.7-0.4 2.7-0.7 5.3-1.1 8 4.9-35.8 12.1-71.5 23.5-105.9 3.3-10.1 7-20 11.1-29.8l-3 7.2c8.2-19.3 18-38 30.1-55.2 1.4-2 2.9-3.9 4.3-5.8 2-2.7-5.6 7-1.9 2.5 0.9-1.2 1.9-2.3 2.8-3.5 3.2-3.9 6.6-7.7 10.1-11.3 3.4-3.5 6.9-6.9 10.6-10.1l5.7-4.8c4.4-3.6-5.3 4-2.6 2 1.1-0.8 2.1-1.6 3.2-2.4 9.3-6.7 19.3-12.3 29.8-16.8l-7.2 3c12.5-5.2 25.6-9 39.1-10.8-2.7 0.4-5.3 0.7-8 1.1 9-1.1 18.1-1 27.2 0.2-2.7-0.4-5.3-0.7-8-1.1 12.9 1.8 25.3 5.5 37.3 10.5l-7.2-3c17.8 7.6 34.4 17.7 50 29.2 2.1 1.5 4.2 3.1 6.3 4.7-8.7-6.5-1.7-1.3 0.2 0.2 4.4 3.5 8.6 7.1 12.8 10.8 8.1 7.1 15.9 14.4 23.5 22 15.2 15.1 29.4 31.1 43 47.7 3.3 4 6.5 8.1 9.7 12.2-6.7-8.5-1.2-1.6 0.2 0.3 1.9 2.5 3.7 4.9 5.6 7.4 5.8 7.9 11.5 15.9 17 24.1 11.1 16.4 21.5 33.2 30.7 50.6 8.6-15 17.3-30.1 25.9-45.1-41.4 2.5-82.9 0.7-124-4.8 2.7 0.4 5.3 0.7 8 1.1-51.5-7-102.2-19.6-151-37.6-9.7-3.6-19.3-7.4-28.9-11.4l7.2 3c-13.1-5.5-26.4-11.3-38.8-18.3-13.7-7.6-33.4-3.8-41 10.8-7.5 14.1-3.9 32.9 10.8 41 22.1 12.3 46 21.8 69.5 30.6 54.1 20.4 110.3 33.6 167.5 41.1 40 5.2 80.5 6.7 120.8 4.3 23-1.4 37-24.3 25.9-45.1-17.8-33.5-39.6-64.7-62.9-94.6-25-32.1-52.5-62.5-83.8-88.5-31.1-25.9-66.6-49.9-106.6-59.1-20.3-4.7-39.9-5.1-60.3-1.4-15.9 2.8-31.1 8.3-45.7 15.1-56.3 26.3-91.4 81.4-113.9 137.1-21.2 52.6-31.2 109.4-36.7 165.7-3 30.1-5.2 60.9-3.9 91.2v1.4c15-8.6 30.1-17.3 45.1-25.9-25.3-10.7-54.6-12.8-80.7-3 12.7 9.6 25.3 19.3 38 28.9-3.4-75.9-14.7-152.5-40-224.5-19.6-55.7-47-107.5-83.7-153.8-26.6-33.5-58.6-62.6-94.1-86.5-25.6-17.2-53.5-31.1-82.5-41.6-11.8-4.3-24.1-8.2-36.5-10.4-0.2 0-0.3-0.1-0.5-0.1-7.9-1.2-16-1.5-23.1 3-6.1 3.9-12.7 10.4-13.8 17.9-2.2 14.8-3.6 29.7-4.5 44.6-2 32.1-2 64.3-0.3 96.4 2.5 47.1 8.7 94.3 18.9 140.4C97 459.6 115 511.8 138.9 561.2c26.5 54.6 61.7 105.3 103.8 149 5.4 5.6 11 11.1 16.6 16.5 2-15.7 4-31.4 6.1-47.1-64.4 45.7-108.6 114.3-135.3 187.7-1.9 5.3-3.8 10.6-5.3 16-4.3 15.1 5.2 33.3 21 36.9 15.8 3.6 32.2-4.8 36.8-20.9z" p-id="2423"></path><path d="M689.8 507.8c-4.1 18-10.9 35.7-18 52.7l3-7.2c-9.4 22.1-20.5 43.5-33.4 63.8-3.7 5.8-7.5 11.5-11.5 17.1-2 2.8-4 5.6-6 8.3-1.3 1.7-6.3 7.9-0.2 0.3-1 1.3-2 2.6-3 3.8-9.8 12.3-20.5 24-31.8 35-14.1 13.7-10.2 37.2 6.1 47.1 7.1 4.3 14 9 20.7 14 0.8 0.6 1.5 1.2 2.3 1.7-7.1-5.1-4.2-3.3-2.7-2l4.5 3.6c3.3 2.7 6.5 5.5 9.7 8.4 11.4 10.3 21.9 21.4 31.7 33.2 1.1 1.4 2.2 2.7 3.3 4.1 0.7 0.9 5 6.4 1.3 1.6-3.7-4.8 0.5 0.6 1.2 1.6 1.1 1.5 2.3 3.1 3.4 4.6 4.1 5.7 8.1 11.5 11.9 17.4 6.9 10.7 13.2 21.6 19.1 32.9 5.2 10 10.1 20.3 14.5 30.7l-3-7.2c3.6 8.5 7.1 17.1 9.7 25.9 4.5 15 21.2 26 36.9 21 15.1-4.9 25.8-20.8 21-36.9-5.6-18.6-13.8-36.6-22.3-54-17.7-36.2-40.7-70.3-68.3-99.7-19-20.2-40.8-38.1-64.4-52.6 2 15.7 4 31.4 6.1 47.1 52.2-50.8 91.1-116.7 112.4-186.3 1.4-4.6 2.8-9.3 3.9-14.1 3.4-15.3-4.7-33.2-21-36.9-15.4-3.4-33.4 4.6-37.1 21z" p-id="2424"></path></svg>