<?xml version="1.0" encoding="UTF-8" standalone="no"?>
<!-- Generator: Adobe Illustrator 21.0.2, SVG Export Plug-In . SVG Version: 6.00 Build 0)  -->

<svg
   xmlns:dc="http://purl.org/dc/elements/1.1/"
   xmlns:cc="http://creativecommons.org/ns#"
   xmlns:rdf="http://www.w3.org/1999/02/22-rdf-syntax-ns#"
   xmlns:svg="http://www.w3.org/2000/svg"
   xmlns="http://www.w3.org/2000/svg"
   xmlns:sodipodi="http://sodipodi.sourceforge.net/DTD/sodipodi-0.dtd"
   xmlns:inkscape="http://www.inkscape.org/namespaces/inkscape"
   version="1.1"
   id="Layer_1"
   x="0px"
   y="0px"
   viewBox="0 0 480 480"
   style="enable-background:new 0 0 480 480;"
   xml:space="preserve"
   inkscape:version="0.91 r13725"
   sodipodi:docname="PiCreatures_plain (copy 1).svg"><metadata
     id="metadata21"><rdf:RDF><cc:Work
         rdf:about=""><dc:format>image/svg+xml</dc:format><dc:type
           rdf:resource="http://purl.org/dc/dcmitype/StillImage" /><dc:title /></cc:Work></rdf:RDF></metadata><defs
     id="defs19" /><sodipodi:namedview
     pagecolor="#000000"
     bordercolor="#666666"
     borderopacity="1"
     objecttolerance="10"
     gridtolerance="10"
     guidetolerance="10"
     inkscape:pageopacity="0"
     inkscape:pageshadow="2"
     inkscape:window-width="1366"
     inkscape:window-height="719"
     id="namedview17"
     showgrid="false"
     inkscape:zoom="0.98333333"
     inkscape:cx="211.93994"
     inkscape:cy="292.28056"
     inkscape:window-x="0"
     inkscape:window-y="25"
     inkscape:window-maximized="1"
     inkscape:current-layer="Layer_1" /><style
     type="text/css"
     id="style3">
	.st0{fill:#FFFFFF;}
	.st1{fill:#0C7F99;}
</style><path
     class="st0"
     d="m 251.6,114.7 c 0,4.2 -1.4,8.2 -3.7,11.3 l -30.4,0.3 c -2.6,-3.1 -4,-7.3 -4,-11.6 0,-10.5 9.51695,-12.89831 20.01695,-12.89831 10.6,-0.1 18.08305,2.39831 18.08305,12.89831 z"
     id="path5"
     inkscape:connector-curvature="0"
     style="fill:#ffffff"
     sodipodi:nodetypes="sccscs" /><path
     class="st0"
     d="m 306.6,114.7 c 0,4.2 -1.4,8.2 -3.7,11.3 l -30.4,0.3 c -2.6,-3.1 -4,-7.3 -4,-11.6 0,-10.5 7.48305,-12.89831 17.98305,-12.89831 10.6,-0.1 20.11695,2.39831 20.11695,12.89831 z"
     id="path7"
     inkscape:connector-curvature="0"
     style="fill:#ffffff"
     sodipodi:nodetypes="sccscs" /><path
     d="M238,99.8c-1.3,0.1-2.3,1.1-2.3,2.4c0,1.3,1.1,2.4,2.4,2.4c1.3,0,2.4-1.1,2.4-2.4c0-1.3-1.1-2.4-2.4-2.4  C238.1,99.8,238,99.8,238,99.8l2.9-1c4.3,0,7.7,3.5,7.7,7.7s-3.5,7.7-7.7,7.7s-7.7-3.5-7.7-7.7s3.5-7.7,7.7-7.7"
     id="path9" /><path
     d="M293,99.8c-1.3,0.1-2.3,1.1-2.3,2.4c0,1.3,1.1,2.4,2.4,2.4s2.4-1.1,2.4-2.4c0-1.3-1.1-2.4-2.4-2.4  C293.1,99.8,293,99.8,293,99.8l2.9-1c4.3,0,7.7,3.5,7.7,7.7s-3.5,7.7-7.7,7.7s-7.7-3.5-7.7-7.7s3.5-7.7,7.7-7.7"
     id="path11" /><path
     inkscape:connector-curvature="0"
     d="m 375.81688,120.9919 -150.70136,4.0678 c -15.94291,0.43034 -30.75824,3.41758 -46.13736,10.82234 -41.01099,21.64468 -74.61721,64.93406 -66.07326,136.70329 9.68315,73.47802 44.42857,123.03296 108.79304,123.03296 30.18864,0 54.68131,-13.10073 74.61721,-39.3022 18.2271,-25.63186 25.63187,-56.3901 21.64469,-89.99633 -5.12638,-44.42857 -25.63187,-76.326 -50.69414,-96.8315 l 1.13919,-3.41758 75.32392,-13.22034 -51.71012,30.50848 c 29.98123,18.80877 72.97808,-9.6512 85.59941,-32.56525 5.79617,-10.52295 -1.26344,-25.858 -1.80122,-29.80167 z m -98.29843,110.58244 c 2.27838,19.3663 1.70879,38.7326 -0.5696,58.6685 -2.84799,18.2271 -8.54396,34.74542 -17.65751,47.84615 -14.80952,22.78388 -26.77106,34.74542 -57.5293,34.74542 -26.77106,0 -46.70696,-36.45421 -51.26374,-70.63004 -2.84798,-19.93589 -2.27838,-39.87179 0.5696,-58.09889 4.55678,-33.03663 22.21429,-64.93407 43.28938,-76.89561 8.54395,-4.55677 19.3663,-6.26556 31.32783,-6.26556 26.77107,0 47.27656,35.88461 51.83334,70.63003 z"
     style="font-style:normal;font-variant:normal;font-weight:normal;font-stretch:normal;font-size:569.5970459px;line-height:200%;font-family:'TeX Gyre Schola Math';-inkscape-font-specification:'TeX Gyre Schola Math, Normal';text-align:center;writing-mode:lr-tb;text-anchor:middle;fill:#0000ff"
     id="path7461"
     sodipodi:nodetypes="csccsccccccsccccscccsc" /><path
     d="m 246.3,149.1 c 5.5,0 1.9,0.1 13.5,0 10.3,-0.1 12.4,-0.1 15.7,-0.2 l -0.3,-3.1 c -3.7,0.1 -8.38323,-3.88619 -13.68305,-2.85085 L 245.9,146"
     id="path15"
     inkscape:connector-curvature="0"
     sodipodi:nodetypes="ccccsc" /></svg>